/* XPM */
static char *_75ad944455c4fb3b8f9e620455dd146nlpsTysW2M3tF7Xf[] = {
/* columns rows colors chars-per-pixel */
"64 64 186 2 ",
"   c #582536",
".  c #562C3B",
"X  c #5A2E3D",
"o  c #54333E",
"O  c #553441",
"+  c #5C3442",
"@  c #5C3A45",
"#  c #5D3D48",
"$  c #613544",
"%  c #6C3747",
"&  c #623946",
"*  c #633748",
"=  c #6C3749",
"-  c #643D4A",
";  c #6B3D4C",
":  c #713D4E",
">  c #6A3F50",
",  c #733F51",
"<  c #514247",
"1  c #56444A",
"2  c #5E434C",
"3  c #5E4951",
"4  c #64424D",
"5  c #6A414E",
"6  c #72414F",
"7  c #654650",
"8  c #6C4452",
"9  c #654B53",
"0  c #6B4A55",
"q  c #6E4D59",
"w  c #734454",
"e  c #794456",
"r  c #734956",
"t  c #764558",
"y  c #7C4559",
"u  c #744C5A",
"i  c #7B4C5C",
"p  c #6D525A",
"a  c #6C595F",
"s  c #74525D",
"d  c #7A515E",
"f  c #6E5C62",
"g  c #765661",
"h  c #7C5462",
"j  c #745C64",
"k  c #7B5A65",
"l  c #7C5E68",
"z  c #726166",
"x  c #756369",
"c  c #7C646C",
"v  c #7B696F",
"b  c #7E6A71",
"n  c #80455B",
"m  c #824D5E",
"M  c #81515F",
"N  c #834E60",
"B  c #884D63",
"V  c #835363",
"C  c #8A5465",
"Z  c #825966",
"A  c #8A5967",
"S  c #8C5669",
"D  c #845C6A",
"F  c #8C5C6C",
"G  c #905166",
"H  c #92556C",
"J  c #98576F",
"K  c #915C6E",
"L  c #8D5E70",
"P  c #935770",
"I  c #945E71",
"U  c #9A5C73",
"Y  c #9E5E78",
"T  c #82636D",
"R  c #8A616F",
"E  c #91606E",
"W  c #856671",
"Q  c #8C6472",
"!  c #846A73",
"~  c #8B6A75",
"^  c #8E6D79",
"/  c #946474",
"(  c #9A6376",
")  c #936976",
"_  c #996977",
"`  c #91677A",
"'  c #9C6579",
"]  c #946C7A",
"[  c #9C6B7C",
"{  c #857278",
"}  c #8D727A",
"|  c #94727D",
" . c #9A717F",
".. c #A2657B",
"X. c #A26B7E",
"o. c #A2707F",
"O. c #9C6E81",
"+. c #967581",
"@. c #9C7482",
"#. c #957882",
"$. c #9C7A85",
"%. c #9E7E89",
"&. c #A46D81",
"*. c #AA6D83",
"=. c #AB6F88",
"-. c #A47484",
";. c #AB7386",
":. c #A27987",
">. c #A87A87",
",. c #A57688",
"<. c #AD7589",
"1. c #A47B8A",
"2. c #AC7B8C",
"3. c #B3758C",
"4. c #B9738D",
"5. c #B27B8E",
"6. c #B9798E",
"7. c #AD7E90",
"8. c #B37790",
"9. c #BC7791",
"0. c #B57D91",
"q. c #BC7D94",
"w. c #BE7E98",
"e. c #C17E96",
"r. c #C37E99",
"t. c #C97F9A",
"y. c #9F818B",
"u. c #A5828E",
"i. c #AB818E",
"p. c #A78691",
"a. c #AC8391",
"s. c #AD8995",
"d. c #B48394",
"f. c #BB8296",
"g. c #B28996",
"h. c #B88896",
"j. c #B78699",
"k. c #BD8499",
"l. c #B48B9A",
"z. c #BC8A9B",
"x. c #B4929D",
"c. c #B9919F",
"v. c #B88DA0",
"b. c #BC92A2",
"n. c #BE9AA5",
"m. c #BC9EA8",
"M. c #C18197",
"N. c #C3839B",
"B. c #C18199",
"V. c #C5819A",
"C. c #C5829A",
"Z. c #C1849A",
"A. c #C5859B",
"S. c #C2829C",
"D. c #C6809C",
"F. c #C6839C",
"G. c #C3859C",
"H. c #C1859C",
"J. c #C6859E",
"K. c #C3829A",
"L. c #C8879E",
"P. c #C9849D",
"I. c #C18A9E",
"U. c #C28D9F",
"Y. c #C58C9F",
"T. c #C4899E",
"R. c #C98A9F",
"E. c #C687A0",
"W. c #C986A1",
"Q. c #CA86A1",
"!. c #C28FA0",
"~. c #C48DA1",
"^. c #CA8AA2",
"/. c #C392A3",
"(. c #C29CA7",
"). c #CB96A8",
"_. c #CE99AB",
"`. c #D398AE",
"'. c #C5A3AE",
"]. c #D5A6B8",
"[. c #DAA3B8",
"{. c #D9A9B9",
"}. c #E5BCCC",
"|. c #FDBED3",
" X c #FBD1DF",
".X c #F6C5D8",
/* pixels */
"0.X.6.5.;.;.2.R T ~ ~ h -.U.f.e.V.r.r.r.D.D.D.D.D.r.r.S.w.w.U k.&.k.k.w.r.r.W.D...k.k.f.k.H.w.N.e.0.f.{.@.. ) i.2.g.d.2.V w g.@.",
"( 2.X.;.0.y -.] D ^ 0 r z.k.R.V.r.r.r.r.r.r.r.r.r.W.w.8.k.P q.&.0.k.H.S.D.r.r.A.w.I q.~.q.S.N.e.A.q.0.f.h.@.O R 2.2.2.k.F K A / ",
" .:.V i N V w ; 5 | @ D -.I.L.V.r.r.V.V.V.V.N.N.k.0.q.f.I 5.&.0.f.0.w.N.V.r.e.D.L.0.K N.N.w.N.9.r.e.f.2.-. .@ T 1.i [ ( [ C S ;.",
"Q ] -.-.5.5.k.; ; - %.8 V 5.A.|.N.N.N.H.H.H.H.k.k.z.I.f.[ X.;.<.0.6.w.9.e.D.r.V.N.`.0.U H.N.A.e.R.0.0.2. .@ T 1.u V ( [ I 5.;.;.",
"W ] :.&.;.k.0.d. .u %.@.r V 0.I.U.~./.!.!.!.U.z.k.z.).f.&.( 0.0.0.6.q.6.0.N.f.H.T.k.I.f.K Y.f.T.z./.:.) 4 D i.h V -.0.V A [ -.F ",
"T D ] [ &.;.5.0.-.8 8 1. .5 R 1.-.-.-.-.-.-.-.@.[ -.;._.' I 0.f.T.w.q.w.f.k.z.z.j.2.@.) i -.-.[ ] ~ ] 7 T @.r D [ 2.2.-.) @.g W ",
"T ] @.] 2.&.2.X./ _ w 5 u.@.4 7 5 8 8 ; 4 5 5 - r r V 2.;.K I.f.R.A.f.f.k.I.z.g.@.@ s 0 @ 4 0 0 7 q 0 T @.h V _ ( S @.) @.T ! ! ",
"c T c 4 D :.d.2.&.[ / ; 8 Q T D ) ] ) Q R R T D ] @.u D F / h.2.5.f.5.5.2.g.a.~ - ~ $.7 # T k l l k k k h i _ -.X.A / :.k c } v ",
"v z v v c k ] 2.;.;.' k.w ; 8 u ; w : ; 8 u 4 q @ | @.7 h 5 h u h s s s q g s 4 Q :.8 @.Q ; ; 8 ; ; ; ; w _ -.[ [ A @.V Q ~ ~ c ",
"3 f z z { v p ) &.5.*.A.H.h.) ) k.f.f.z.h.] l.] - - +.| ] T ] | ^ @.| +.+.~ | ] -.D F / f.f.z.k.h.h.A h.V -.@.] Q 2.h ~ Q T W T ",
"{ x v v x b j l [ 5.0.f.d.z.1.1.h.5.f.d.2.@.g.) c.- 5 | h r - 8 8 ; ; ; ; ; * $ ; N d.( / -.2.-.h.-.2.2.2.@.-.[ @.h Q Q ~ ! ! g ",
"l ! b v v j c m.T Q / / [ F ) D V S N A _ 2.:.1.@.-.D h D r h d._ d.;.0.2./ m f.f.f.k.( V V -.h V R R Q R Z D h D W W ! T ! p b ",
"~ T T c j j b l x.^ W Q )  X5 [ _ _ ] _   -.2.2.-.[ -.e I d.V z.X.f.&.F ' S ( I f.~.f.( N ; V  .W W ! W ^ ~ | ^ W W ! c c a b v ",
"T T T c k l ! 1 v v ! ! k 8 a.a.).h.z.)./   X.N C f.I ' X.<.S C e ;.<.2.d.~.S ;.' 3.A.../ _ * s ^ l x W T ^ T ! ! c c v v ! b v ",
"! T l W T j c v 1 v f j 4 g.0.H.d.k.0.0.[.B <.<.H.( ( &.<.0.&.X.V y d.,./.S z.S *.U 8.X.' h.] 4 0 ~ p j j j x f j ! x ! c W T Q ",
"T ! W T p j v b x < x 9 :.h.k.0.k.k.f.f.k.C &.;.( ' ' -.2.-.&./ / w , / 0.I F ~.C *.' 8.y ; i Z 8 n.| g l c x b v x v ! c ~ T Q ",
"T W ~ k j 3 b c ! c @ Q ,.&.*.=.;.3.;.X.-.V ( C I w ]  .D @.@.] / K i w F [ K I T.G =.U 8.( &.L ; 8 c.| s T j v x v c c ! c W ~ ",
"~ ~ k ! p 2 c c c s $.2.0.q.N.4.A.A.f.0.d.Z ( K o.) h 4 h D 1.[ -.[ 2.A F V <.5.f.w...;.H.2.I h.h.d & l.| j c c j x v x T c c ~ ",
"! c ~ c x 0 T c s | 7.7.k.N.N.A.N.w.0.f.h.D _ ( _ Z ~ @ @.h D a.[ >.[ 2.F = ' f.k.5.*.X.8.X.;.F / >.Q 5 (.} k j j x ! T l W ~ T ",
"! ! T ! k 4 T s ] g.-.z.0.0.N.w.N.w.w.f.h.D _ _ -.u T o @.@.u D a.-.-.-.-.N e f.X.;.[ <.&.-.' <.2.A -.R - n.^ s c k j c ! c ! T ",
"T ! c k T 4 u @.a.,.0.f.0.q.A.w.V.V.H.f.h.D _ _ 2.d W O | @.:.r V i.@.-.;.K w : ;.[ _ d.;.;.k.X.5.[ C 2./ 5 l.| s s k x ! c c W ",
"b c c ~ k - -.d.<.<.f.<.k.w.w.A.e.q.M.0.d.D / _ ) h ^ o :.@.@.$.h D 1.-.2.( K i : 2.a.-.<.' X.S ..<.[ C -.R r x.| g c x c ! ! T ",
"c c W T s h ,.0.q.N.N.0.0.0.N.e.V.e.M.5.d.V / / -.d W 4 h :.[ ] @.u D d.-.K : V i ; 2.[ X.[ X.X.0.m 0.X.F 2.F 5 c.| k c l T T c ",
"c c l 7  .V f.H.A.e.N.0.9.w.N.w.V.9.q.0.d.Z / [ ) ] ^ 0 ~ r $.@.@. .u D a.2.-./ d.i w V d.;.<.k.f.;.k.6.X.V 2.F ; b.] T c T W T ",
"c T # 1.:.V k.N.N.r.e.r.N.w.N.N.N.w.M.<.d.D F _ [ R | 4 1.R h ] ]  .2.r D l. .@.d./ ; i K 2.i N C 5.3...<.;.[ -.w ; l.| k T c c ",
"T 4 1.g.&.F H.N.V.r.r.r.V.N.A.A.N.k.k.f.1.D / K F d ~ 0 1.1.Q u 1.-.) $.u g l.@.2.V S S V [ /.!.f.6...*.( f.' -.2.w 5 l.| k l c ",
"r $.h.2.<.H w.e.V.V.r.r.e.N.N.w.k.~.z.-. .5 E [ -.R ~ s u 1.$.:.i [ -.@.+.q T 1./ F K K V i [ / [ ' &.N N B X.6.<.d.; 0 '.| l k ",
"@.7.d./.X.H N.N.e.r.V.V.V.N.S.H.z.h.2.[ + Q d.' d.i u | s s p.1.@.i  .@.| $.7 D 1.-.[ C F V ; V S -.X...( *.&.*.3.z.d.* 8 n.^ 9 ",
"k.d.f.k.&.H w.A.N.N.V.V.N.w.k.H.z.a.] $ ) :.K / X.F u q 1.0 g l.:.[ u %.%.%.%.8 D @.2.I C C i m ' -.0.K H H U Y 6.z.z.@.d 8 Q k ",
"3.T.f.w.&.S A.w.A.N.N.N.k.w.w.k.h.) - R 1.u i C m 2.- 4 q $.u u l.:.1.:.@.@.| :.r R -.2.E A w % ; j.&.0.k.k.0.N.3.&.I F a.u ] s ",
"0.A.N.A.=.H 0.A.N.N.N.S.A.E.S.f.[ - Q i.u u F C K _ s.# 4 u $.q q :.1.:.@.1.:.] ) r Z 1.2.5.C z.i ; -.5.f.k.w.4.A.;.f.F h.h ) h ",
"k.T.N.N.=.H A.w.N.H.S.k.k.k.8.[ * ^ 2.h h u M m C ;.Q s.- - u | g u p.u.2.:.[ ] @.] s k 1.-.<.f.k.t e f.k.k.<.k.F 2.<.' h.u ) k ",
"2.d.f.I.;.I w.N.w.A.q.k.z.;.[ * ~ u.i e w w w w ( d.;.) g.; $ & 1.s s u.%.:.O.-.-.@.+.q D i.0.3.k.0.m , 2.1.u.T u + &.X.d.i ^ p ",
"V -.d.!.X.H N.N.D.9.T.q.0.h.* R p.D i ;.e ; u Q -.2.<.2.[ 2.h.; & | 9 j %.@.,.2.' 2.] ^ s Z z.6.0.0.I C i 1.c 9 ~ - -.( z.w $.9 ",
"- h :.h.2.S A.e.r.N.e.N.d.2.+ s.D h S <.5.[ W | 0 R 2.;.;.[ f.2.5 - u.9 q 1.g.-.2.1.-.| @.u F /.<.h.' &.V @.2 #.%.- X.;.S V D %.",
"u.r u 2.,.V H.N.r.V.V.w.5.d.+ @.u A K ;.X.] #.3 k 4 F [ 2.z.X.z.d.& & | q k @.d.2.-.2.1.R @.* i 2.O.X.S w D 7 ~ c @ _ I &.K r ) ",
"l $.0 q 7.z.I.H.e.P.V.0.k.2.- h V N y X.V | 0 j | @.. F -.2.<.' X.-.h r ] s r b.7.2.-.:.1.@.%.u Q -.[ !./ -.# y.y.o ] ;.k.I.m w ",
"4 4 | 7 Z 2.z.~.A.r.e.H.5.-.. | h F i A -.h l s.x.i.@.+ F 2.5.2._ X. .5 d :.8 i z.2.1.2.@.) @.%.> 2.( 5.i g.%.@ %.@ a.d.&.f.C m ",
"& - - p.4 k 2.f.~.H.A.6.5.d @ @.F ] R :.r V 2.z.h.d.b.-.  R h.2.2.5.-.1.r h a.5 i z.i.1.:.%.+.^ * 2.' k.= ; u.%.# k @.-.I [ m m ",
"h.2.8 d s.0 Z h.f.U.H.f.F 1.4 | u Q u ) h d.k.f.f.0.k./.-.X Q 1.2.[ z.-.@.* h 2.0 u b.g.@.%.^ 4 F 2.( k.z.w ; u.#.k d ] -.2.K / ",
"f.k.2.0 - Q - 4 F z./.R z.[ & ^ p.q r ) F f.f.N.A.6.N.k./.@.+ T h.[ d.V h.-.; Z 1.7 s '.p.| @ T 2.S X.H.' f.r 7 4 W D ~  .i.) ) ",
"U C [ ) d 4 %.q D [ i.a.[ @.& ] :.g.i F K k.N.q.e.V.V.0.q./.+.O R @.-.2.z.z.i ; k | 0 k +.@ Q 1.V d.;.;.X./ D u s # $.k  .Q  .D ",
"<.6.&./ i.5 - u.@ D i.i.1.D * F g.d.u Q F H.w.L.r.V.e.N.f.k.z.O.+ Q ] O.-.w / i & k | q 4 D 1.V ( H.<.f.;.-.F Q D 4 s %.k R T | ",
"X.5.S z.g.:.Z r u.0 u :.| 4 V F 0.k.i R F f.N.V.r.V.e.N.A.8.2.z.-.. F [ 2._ / _ 5 d $.4 T 1.F I I.' K F 5./ V R F Z D k @.l ~ T ",
"/ 2.1.V -.2. .R h  .q s & Q u w 3.0.h Q Z h.T.e.V.e.H.f.f.k.3.3.k.-.+ Q 1.i.2.[ 6 e D :.:.A f.H.U T.k.k.C -.-.w ; ; ; w h | k ~ ",
"Q  .-.-.X.o._ F ; F :.7 Z :.V / N.*.r ~ Z g.H.V.V.N.N.k.w.0.w.0.0.!.[ O R g.-.( k.m ; / A 2.f.w.^.U m , F _ &.2.f.k.f.i i i | s ",
"T ~  .2.;.o.5.5.5 i D 1.%.V [ d.0.0.u T Q d.H.N.w.A.N.e.D.w.0.5.q.f.-.$.o D [ 5.A.U : e / f.f.M.4.H.&.2.-.2.0.<.3...&.X.; R s %.",
"#.g T D d.2.X.<.o.; ; D D ] -.-.X.A ) Q F d.H.N.A.w.N.V.r.r.k.H.q.k.-.}.$.& 2.5.6...f.C V d.0.0.8.k.5.( -.<.5.6.H.3.f.f.z.u d D ",
"h | s ] Q 2.;.0.C , ; / / / ( / D s :.r L k.q.D.N.N.N.e.w.w.w.N.N.q.f.7.z.+ / 2.d.K K S e N 5.d.0.f.2.S -.[ X.' U ( ;.I m i r r ",
"D 8 @.l Q ] d.;.*.<.<.m z.f.0.[ $.k r i 2.0.H.w.N.N.N.N.e.e.M.N.q.A.q.f.z.-.. F 2.z.F F F e w -./ ) I , [ 5.q.q.k.X.( ;.K X.r w ",
"Q h a.@.k R ] z.&.f.f.2.f.z.( _ @.q h -.k.q.^.N.N.N.N.N.N.N.e.e.V.N.4.0.!..X@.$ F 1.1.-.F X., e d.2.-.i d.f.k.8.f.( ( f.-.V -.i ",
"_ D 8 g.%.g Q ] a.2.-.;.f.;.-.@.h 0 1.z.0.N.N.N.N.N.N.M.N.N.e.w.e.w.4.k.f.d.z. .& D 1.2.[ [ H.: w -.A V k.f.0.f.;.X.[ 0.<.0.F X.",
"( ( i 8 p.%.g W Q g.-.[ V _ 2.i h ] j.k.k.N.N.V.r.r.M.M.N.N.e.w.A.V.9.w.w.8.z.h.) & D 1.-.' f.5.: ; _ i <.d.d.0.5.' ' 8.;.f.;.K ",
"k.I.( i - u.$.g T R [ / N -.8 u 1.2.f.f.H.V.V.V.V.r.N.N.N.N.N.e.N.0.0.N.N.I.0.2.z.] + R d.[ f.0.M 6 w ; _ / L / / / ~.( <...&.;.",
";.' ;.[ 5 - x.| k 2._ / V [ 7 u.h.&.f.k.w.V.e.e.V.V.N.N.N.N.N.M.w.^.4.w.w.N.f.d.7.l.[ + ) d.2./ -.V F w R ) / / / d.( &.k.6.0.3.",
"X.X.K &.A h 4 1.:.V &.2.N ) 4 %.1.-.f.k.A.e.V.V.V.V.N.N.r.M.N.N.w.w...A.w.N.k.f.0.h.z.[ X Q h.-.F F 1.h ; 2.d.2.7.[ 0.;.f.k.N.f.",
"&.m 6.C w ; ; ; u [ <...V Q 7 %.,.I N.w.L.e.e.r.e.V.e.N.A.w.N.N.N.*.3.n k.k.H.H.f.q.k.!.[ + Q ] ) 1.@.@.) V 2.h.2.d.-.f.8.q.k.w.",
"I ( 0.2.K N V w m &.*.<./ R 0 %.z.f.G N.9.Q.r.V.V.N.N.N.w.w.A.w.;.&.f.=.y H.w.9.e.w.4.8.!. .O u ] 1.@.2.1.; * 2.2./ [ m 8.3...&.",
"[ ( k.f.;.~.k.d.0.X.C &./ :.7 u.I.~.w.J ^.q.e.V.L.w.w.N.w.N.A.4.8.=.&.f.3.y N.V.9.4.9.4.2.].@.. - -.] D h i w ; d.' / &.=.f.f.k.",
";.C f.f.I.f.~.H.k.F [ _ 2.d u :.f.k.;.q.N.9.V.4.9.0.w.0.=.*.*...k.3.0.6.H...=.4.e.V.e.N.f.z.g.] $ 0 1.-.-.2.-./ ; d.z.f.~.' k.<.",
";.m X.( ....k.k.0.;.[ a.Z r -.h.k.' N...w.V.e.V.w.N.N.H.A.N.V.A.E.0.q.S.f.A.A.N.D.e.^.N.0.d.k.j.` X > g.@.O./ -._ : 0.f.f.X.;.d.",
"F V d.d.d.K K C 0.i @.h 8 -.f.0.( k.4.N.A.N.e.w.N.A.0.w.N.N.r.r.w.^.S.q.N.4.w.N.N.w.q.w.H.H.0.k.b.` $ ; [ L -.F 2./ , F f.5.2.;.",
"X.X.e d.d.&.y i A 8 ] s @.d.f.X.q.<.k.w.N.w.N.A.0.A.A.H.N.N.D.r.Y k.*.W.D.r.*.k.q.~.k.k.f.9.e.w.j.b.) > [ 2.2.z.C % F w ;.2.X./ ",
"X.-.( i [ K m K i h ~ s a.[ U 0.=.f.H.k.N.N.N.N.N.k.w.w.w.A.9.U N.*.N.S.r.^.N...k.k.k.f.A.V.t.r.d.l.v.O.$ Q d.2.5.d.F V V K m d."
};
