/* XPM */
static char *ff27f21d47d842b5dd95d21cf915a0b4KyVH1ef6ZSg9JQlQ[] = {
/* columns rows colors chars-per-pixel */
"64 64 121 2 ",
"   c #1A191E",
".  c #1E1D22",
"X  c #232227",
"o  c #26262A",
"O  c #29272C",
"+  c #2B2A2E",
"@  c #322E2F",
"#  c #2E2D32",
"$  c #302F33",
"%  c #333235",
"&  c #383637",
"*  c #36353A",
"=  c #38373B",
"-  c #37383C",
";  c #3B3A3E",
":  c #403E3F",
">  c #3E3D41",
",  c #403F43",
"<  c #3F4045",
"1  c #424245",
"2  c #494647",
"3  c #454549",
"4  c #48474B",
"5  c #47484D",
"6  c #4A4A4D",
"7  c #504E4F",
"8  c #4D4D51",
"9  c #504F53",
"0  c #4F5054",
"q  c #525156",
"w  c #515257",
"e  c #535257",
"r  c #525155",
"t  c #545255",
"y  c #555356",
"u  c #545456",
"i  c #555557",
"p  c #575556",
"a  c #525155",
"s  c #585657",
"d  c #545358",
"f  c #555459",
"g  c #575558",
"h  c #565658",
"j  c #575759",
"k  c #56555A",
"l  c #57555A",
"z  c #56555B",
"x  c #55565B",
"c  c #57565B",
"v  c #57565C",
"b  c #565559",
"n  c #595758",
"m  c #585659",
"M  c #59575A",
"N  c #58575C",
"B  c #58575B",
"V  c #57585C",
"C  c #58585A",
"Z  c #5B595A",
"A  c #59585D",
"S  c #5B595C",
"D  c #5A5A5C",
"F  c #5B5B5D",
"G  c #5A595E",
"H  c #5A595F",
"J  c #5B5A5F",
"K  c #5D5B5E",
"L  c #5C5A5F",
"P  c #5C5C5E",
"I  c #5D5D5F",
"U  c #5A595D",
"Y  c #5C5B60",
"T  c #5D5C61",
"R  c #5F5F61",
"E  c #5E5D62",
"W  c #5F5E63",
"Q  c #5D5C61",
"!  c #615F60",
"~  c #605F64",
"^  c #615F64",
"/  c #605F64",
"(  c #616163",
")  c #616065",
"_  c #626264",
"`  c #636365",
"'  c #626166",
"]  c #616267",
"[  c #636267",
"{  c #646466",
"}  c #626166",
"|  c #646368",
" . c #656469",
".. c #676568",
"X. c #66656A",
"o. c #67666B",
"O. c #66656A",
"+. c #68676C",
"@. c #68676C",
"#. c #6C6A6B",
"$. c #69686D",
"%. c #6A696E",
"&. c #6A696E",
"*. c #6C6B70",
"=. c #6F6D70",
"-. c #6E6D72",
";. c #706F74",
":. c #706F74",
">. c #717075",
",. c #727275",
"<. c #747378",
"1. c #76757A",
"2. c #7C7C7E",
"3. c #7C7B80",
"4. c #7F7E83",
"5. c #807E81",
"6. c #86858A",
"7. c #868688",
"8. c #87888D",
"9. c #8B8A8F",
"0. c #89898B",
/* pixels */
"- 8 3 % 1 4 # 4 8 > , - 4 e T > 3 T 4 = 1 3 , - d > 1 > c 9 1 1 > 4 1 > = 4 $ 6 e - > > 1 6 J 4 3 [ 4 = > > > > e 1 > 3 c 8 8 < ",
"6 - - 1 , - 6 1 4 T 4 8 e J = - 1 - r 8 > 1 9 J 4 > - 8 > c v > 8 % = > 8 - 1 - , T 6 6 8 T = = 5 4 8 8 6 4 e Y > = 8 4 > J e 1 ",
"N > - 1 1 4 > > - 9 >.- J 4 , > 1 1 1 c o.T T > - - 1 = 1 4 c 9.e 4 4 - > 6 - 6 = 8 ;.3 N , 1 > > 3 1 c %.c J 1 , > - , > 4 c 8.",
"= > > , 1 - 8 6 1 = c - - > = > 1 - > 4 T 6 > > > 1 = = 1 1 1 6 4 > 1 1 1 1 4 1 3 c 4 4 = 4 , > 3 4 3 4 9 > 6 1 - > 1 = = 4 8 6 ",
", c - - > > > > [ Y + T T - 4 , 1 ; 4 4 8 e e = = > > > 1 3 8 3 > 1 4 1 , > 1 1 e c o = c , 1 , 3 < 3 J c - J 6 1 % 1 - 1 8 - > ",
"= e 8 > - > > c 4 # 4 - e 9 = - 4 > , 8 1 % e 9 - - - > e 1 % 4 > e d > = > > J > # > $ 1 8 > - = 1 c , % , 2 t 1 , > 3 1 , + > ",
"1 , 8 4 9 1 [ 1 o - , 4 - d e > 4 4 8 3 > , 1 6 4 c > 8 > - - > 1 - 1 6 8 > d 4 % 1 3 4 = 9 *.> 8 +.4 # % 2 1 * r , ; 8 , = 1 > ",
"1 3 > 8 9 o.8 % 4 > 1 1 6 8 6 6 e 8 > > - - 4 4 6 J Y 3 1 > 1 > 1 1 , 9 9 | 4 o > = 1 > 9 # Y 3.[ [ $ > , 1 2 1 , 1 m 4 3 - > > ",
"d > 8 - %.6 8 J , % 4 1 > 6 1 c 9 1 , > > > - 1 1 [ T 8 - > - > m - 8 > %.6 1 = - > , 4 1 4 % T ~ 8 > > > 1 1 2 2 1 ..3 > > - > ",
"- 4 4 J T 8 4 3 1 6 - > 4 1 c O 1 c 1 4 > = 4 , 6 %.T 8 c 1 = > > 4 1 c J 9 J 6 1 - - , 4 6 o.c 3 Y 3 1 1 6 ; 3 6 m 9 t 8 1 - ; ",
"4 > e > X > e d 4 > 1 = > J 1 > = 9 ~ % > 4 - 8 4 8 4 4 1 8 - - 1 , 8 > X - c 8 - > - = , d e # > 8 r 3 1 : 4 1 1 #.1 ; 6 8 - - ",
"= c 6 = - 6 > J 8 4 - 4 1 1 - 3 1 % 6 Y 1 > > - e > 4 > - 8 4 - - J 4 & > 1 = d 8 > - > c 4 > 1 > % 4 e 1 1 r t i 6 1 2 > 1 8 > ",
"d 1 % , - > > 1 Y - 6 c N , > > > 6 = 8 [ > 4 c > 4 > - 4 4 e e J 1 % - = ; 1 8 r 3 1 6 4 % ; 1 4 1 4 6 i 7 : 6 1 C 2 & 2 1 4 6 ",
"T 3 % 1 1 - 1 > - <.6.e 1 > = > > > > = 4.~ c , 1 1 4 - ; 6 - T C 1 > > ; > > 1 - 6 i c - 2 4 ; ; > 1 $ ! i 1 2 2 = 2 ; 3 6 * { ",
"= c % 1 - - > > 4 e Y T > - > > > > 3 6 d > 8 4 1 3 > 1 6 1 ( 8 * C = 1 = ; ; 1 4 6 e 3 1 - = - ; 1 ; - 6 4 1 2 1 1 ; 1 , 2 C 4 ",
"= 1 8 - - , = 1 6 8 = 8 N - > > , > 4 1 3 = 8 9 4 > > ; 1 e r + = < 6 ; ; > = 3 4 r * 3 4 = 1 ; - ; , 3 m % 6 s : : 1 ; 1 6 6 + ",
", ; 1 r - * 1 6 c > 4 % 4 8 - > > 8 > c > > , 4 8 > 1 4 i 4 % ; , % 1 e - - 3 9 9 & e , 6 3 ; & ; > 1 r 3 1 + 4 r * 1 3 c 6 # ; ",
"; 2 * ; 4 3 c C 4 > 4 1 > 4 c 1 > = c = > 1 % % 4 J 3 J 6 > ; 1 ; 1 % ; 1 3 m m ; , ; , & C = 6 6 1 4 1 = 3 1 * 4 r 4 C 8 % > ; ",
"> = 4 ; 3 6 3 1 - > 1 > 6 > 3 c d c > = > > 1 8 - 6 o.9 = - = 1 ; 1 1 , 6 6 1 1 1 % , t 9 9 > *.r 6 1 = 1 ; ; 3 ; 3 [ 6 % > > 1 ",
"> 3 = 6 6 % J ; 4 > 1 8 - > = c d % > = > - = > , e   % 6 1 1 1 , , > 4 2 * 4 > = ; , = = 4 , 1 6 4 ; ; = ; > ; 1 4 * * r 1 ; - ",
"= ; ; 6 r ; r 1 = , > , 4 8 c ~ e 9 - = > - , 1 e 1 X 6 J > = * , - > e 4 & 9 1 1 4 , & 3 1 6 6 4 6 ; ; > 1 ; 1 [ 4 4 r I > - ; ",
"1 > 4 4 ; ; 6 3 6 1 1 - 4 c e 1 4 9 8 = > - > 8 4 # 1 % 9 T 1 > 1 1 6 6 1 > 1 2 3 * ; 6 1 1 K 4 1 r 4 = 1 = ; I 1 + 4 * r T 1 ; ",
"1 4 6 i - 1 4 1 6 e , 4 8 J # , 4 > 4 c % 6 8 4 # 1 - 4 - e J - - 6 4 8 4 - 1 > 1 6 = 1 4 6 * ; = 3 e 1 % 3 8 6 # 3 1 ; - 3 I 1 ",
"6 C ; 1 - 1 ; 3 4 c T ~ c % , ; 1 6 > 8 o.N N % > > > 4 > - 6 *.T 8 1 1 - 3 1 3 1 c *.1 1 > 4 1 < ; 1 i i #.3 % 3 1 1 3 1 1 4 ,.",
"c > 3 1 , > 4 4 1 6 5.9 ; ; & > 8 8 1 > T 9 , > > - > - > 6 - T J 1 4 3 1 , > 1 4 = C I > ; 1 1 > - > 3 T = > 6 1 4 1 > > 3 = T ",
"% c 4 > 4 1 1 > 1 4 m i 1 * 6 & , > 1 c 8 6 8 > > > = > > 3 8 6 # Y % - 4 > > 1 ; 3 1 4 >.= 3 > > 1 > c 6 c 1 T 1 = 4 > 1 1 d 6 ",
"= V 8 1 = > = 4 4 4 1 9 t T % - 4 1 6 > = # 4 c , = 1 - 4 , 8 1 > J e = $ - > , 6 8 4 ; e I 3 = > , c c = > J 1 4 1 - > , 1 8 , ",
"1 $ 8 *.1 > 4 1 T 3 ; & 6 9 3 3 1 r 4 % = 1 - > 1 > - > 6 6 > > - = 3 *.- = > 1 J > - ; 1 C C 3 4 [ - X 1 > 1 8 c J = 4 4 6 > , ",
"< > = 0 N 8 Y Y 1 , 1 , 6 ; 2 4 i 6 # ; > > 4 > 8 8 4 6 N 1 4 > , - % T 9 8 N c > > > = ; 1 i J %.1 - 1 > 4 4 4 e 8 4 8 8 4 1 - ",
"- 4 > > T T [ 1 , ; 3 1 1 6 ; ! c % > 1 1 , > 6 1 9 e J > > > > - > 4 # T [ e = - > , 4 > 1 % ,.%.8 , - > = 3 8 4 8 c N 3 - , - ",
"= 1 8 > ~ c e > 4 & 2 1 3 4 Z 6 > i * ; - 3 6 1 4 9 J c 4 - > 1 > 4 4 4 [ J 9 > > 1 > > 4 8 e 8 4 e - > > > 4 , 1 T 8 J 4 - - 1 ",
"- = 1 c [ > T T 1 1 3 1 2 8 m ; & 6 8 > ; 1 1 6 3 e % 6 c - > = = > 4 e T , c T 1 1 1 1 2 4 J - - 8 8 > - > 1 6 1 8 % e e > > = ",
"= > 4 C ; 1 = r 8 1 3 3 6 6 O ; 3 1 4 8 > ; 6 , 6 1 1 ; 9 r * ; - - 4 J 1 4 & 9 6 1 1 3 6 9 + > 6 - 8 8 % 1 1 > 4 1 , 1 8 e > = ",
"4 1 r = 3 1 1 * r C 1 I 1 o & 6 > , 6 1 T - 8 9 > 1 ; ; % 9 4 1 1 2 c - 4 > ; = 9 m , K 1 O = 2 - 1 6 4 9 - c c > 1 = - = 4 d > ",
"6 6 6 ; = ; > < = C i , $ 1 2 , > 1 1 1 J N 1 4 = 1 , ; 1 ; r 5.6 8 4 = ; 3 = ; & m i 1 @ 2 2 1 ; 1 ; 1 I c 6 ; ; 4 - ; - 1 6 2.",
"6 6 ; = 1 ; = 4 > C r - 6 1 1 ; > - 4 4 8 % J * 1 $ 1 1 ; 2 $ ; 4 4 ; ; ; 1 * 3 , ! 9 1 2 1 , 1 ; = 3 4 1 + e = 1 = - 1 1 3 * - ",
"> 4 1 = ; ; ; 1 i 9 & 1 I & ; 1 = 9 ; 2 2 * 1 e = ; & , & ; C 2 > 4 1 > = - = 3 m 7 % 2 I ; ; 1 , 3 > > 6 = 1 r - > ; - - 1 i 3 ",
"% 6 6 = = = 4 i 1 ; , & , t 2 ; 1 1 6 2 , 2 = 6 9 + , ; 2 6 I 6 = 6 3 % 1 ; ; i , & 1 * 3 t 2 & ; 4 r 6 ; 4 = 4 6 % = > 3 4 C 3 ",
"4 % 6 3 & ; ..1 + 1 6 : % 2 7 ; 1 6 6 3 = ; - ; 2 4 ; ; 6 i 1 : 6 * 6 ; ; ; _ 1 + 1 7 : % 2 7 : 1 0 4 - ; = 1 * 1 1 1 = r i 1 1 ",
"1 s 1 4 3 F 2 % ; 1 : : 1 = 1 3 J 3 ; 1 ; 6 4 3 - 4 4 4 6 ; ; = 1 r 3 3 3 C 6 % , 3 & : ; : 1 2 i 3 - 1 1 6 4 1 - 4 6 6 4 > ; ; ",
"= 3 1 1 T 4 4 ; ; > 6 ; 3 3 % ;.C 6 ; 4 3 ; ; 1 r 1 7.4 1 = = = ; 3 1 3 i 6 > > ; ; 3 > 3 1 * #.c 4 1 4 4 ; 1 - 8 4 0.1 > ; = = ",
"4 - < I i 4 4 1 > = ; 3 & ; C 1 ; o.1 1 > > - = 4 C - = 6 = * r = * 1 #.i 1 6 > > > = ; > ; C 1 1 ( 1 1 > = ; - i r - = 8 = = r ",
"- 1 c 4 ; - r e ; - 1 = 2 6 t 4 % 4 T > > 3 - 4 4 e 1 ; J 4 3 % > 1 i 4 * 1 r I ; ; = = 3 8 t 2 % 4 [ > > 4 > 6 8 8 > 4 d 8 - - ",
"1 #.1 # - ; 1 r 4 - - 3 4 ; 1 3 3 = 8 J > > 8 1 8 = 1 3 > 4 ; > = { 6 o 1 = = r 4 * ; 1 4 ; 4 , > = 8 N > > 8 1 4 1 - 4 , > 3 , ",
"%.8 % > , 3 - 4 e 4 e e 2 > 1 3 4 4 % 6 T 6 4 1 = 4 4 1 8 1 > e #.c % 1 > 1 1 8 8 8 e e 4 1 > 4 6 4 $ 6 [ 4 4 4 - 1 4 > 6 1 8 e ",
"o.- ; > > > > 4 1 T [ J - 2 1 1 > 1 4 # ~ T 1 1 1 > - > > 1 > o.#.% ; ; 1 - 4 = 3 ~ +.c > 1 > 1 , 1 4 % | ~ 1 1 3 > = 1 , 4 1 o.",
"4 %.= = 1 > = > 3 1.T 4 | & 2 1 1 > 8 6 > 6 c > , 1 > 1 1 1 ;.4 6 o.> > > > = > 4 >.~ 6 Y = 1 1 > - 8 8 - 8 c = > , 6 > 8 4 o.8 ",
"3 8 J 1 - > - 4 c 8 % J 6 8 > , > 1 4 1 8 % c c > = 1 4 > ~ 1 + , c c > , - > 4 c 8 % c 8 8 = 1 1 , 1 8 6 $ c N - - > 4 - [ 1 # ",
"> - J 8 , 4 > 8 4 - 3 , d 4 8 , , 6 > , > > - e +.= = > T 8 + > > % c e > > 4 e 6 % 1 > J 4 8 > 1 1 > 6 > 1 % J [ > = > T e O 1 ",
"> > > N N = e 4 1 = 1 4 , J 6 > 1 1 9 1 4 > 1 % 8 o.4 %.> o 4 = , > 1 e N - e 3 1 > > > 4 c 4 1 4 > e > > > > % e %.4 ;.3 O > > ",
"4 > 4 , o.%.6 4 - > > 4 4 8 8 [ 4 4 > > - > > 3 = J W e + - 4 1 1 > 1 - %.%.6 1 > = 1 4 1 9 e +.6 8 > > - > 4 > % T W e # , 4 > ",
"> 1 1 - % c +.4 = > > = 1 c 1 8 8 4 , > - - > 1 1 J o - > 1 , 3 > 1 , 1 = 8 ;.4 = 4 > = 1 8 > 4 8 3 1 > > 1 > 1 , Y o > 1 1 > 4 ",
"1 1 1 c d 1 > %.4 , 1 - 1 - Y 1 1 N 8 - 1 3 - 4 *.Y X 1 Y > - 1 3 - 4 c e - - %.> - 1 = 1 1 c 3 > Y > > 1 > > 4 | [ # > c , > , ",
"1 > 4 1 3 3 - 4 T 1 > = 4 6 J 6 > c 8 > - > 3 N 1 + 4 % 3 6 4 > > 1 4 - 4 1 = 4 [ 4 - > 3 4 T 1 - v 8 1 = 1 > Y 3 X , % 4 4 1 , ",
"3 > d 6 = 3 1 # > J 4 6 > 4 3 > 4 - c e 1 > c , + 4 4 1 % > d - , 6 8 3 1 3 4 # > Y 1 4 1 8 > 1 1 > e d 1 > e > # 3 4 > % 3 J = ",
"N J 4 6 > > 1 4 > 4 o.6 d - 6 1 > 4 1 8 T *.8 # 1 4 % 1 6 > c *.J c 4 6 , > > 3 > 1 ~ 8 d - 4 1 1 4 1 8 T %.4 $ > 4 - > 4 - J ;.",
"c 4 > , 1 > 1 , - # 4 ~ e , 1 1 4 > 8 6 o.J = 4 > 4 - > > > + e J 1 , , 1 1 > 1 > % 4 o.6 1 1 1 4 > 4 4 *.J % 3 4 1 - , 1 - # e ",
"8 Y 4 = > 6 e > 1 6 3 e %.- c 3 > 1 > [ | > 1 > > = > 4 1 1 1 c 1 [ > 1 > 4 c , , 6 > 9 @.= 8 1 > , 1 T [ , > 4 > > > 6 > , 1 J ",
"% e e , - - , 4 3 9 - - 8 [ > 1 1 1 8 6 % 1 J 9 4 > > 1 3 1 8 4 = 8 e - - - , 1 6 6 - > 6 [ 4 > > - 8 4 % 6 d 8 1 3 3 > 6 4 e 6 ",
"1 = 6 c 1 , 8 6 6 = 4 6 O 4 T - = [ 8 . 4 1 6 e 4 > 1 - 6 8 > 1 , - 6 N > > 6 8 4 = 4 3 o 6 [ = - J - . 8 > 3 e 4 4 , > 4 J - 3 ",
"6 6 $ 1 d 8 c 4 1 1 1 4 3 # 9 8 ~ T # 1 > , > 1 4 c 8 c J 4 = 3 4 6 % 4 e 8 d 4 > 1 1 , > % e 8 J o.$ > - 1 6 > 8 d 8 e d , > 4 ",
", 1 > % N Y > 1 > , > 1 4 1 % e o.> - - = - > 4 4 | Y [ 6 - , > 4 1 4 # T Y > > , - > 4 , > = e o.- , 1 > - - 4 4 [ c o.1 > , , ",
"4 , 4 N J 6 [ - - 1 4 4 1 1 3 e = > - = > > = > , 4 J 8 = 4 - , > 4 > J c 1 %., = 1 1 1 3 > > e > > - = - > - > , 1 J 8 > 4 > > ",
"1 > J e 4 > J N 1 1 - 4 3 8 8 c 8 d - - > > > 6 4 6 > d e 1 1 - 1 = T 6 6 , c c 3 > > 1 4 6 e e 8 c = > > - , > 1 8 1 9 e > 1 > "
};
