/* XPM */
static char *_601cd6d3bb5415e83ef923879fee1ed7JbsJD6N2PHM4gKe[] = {
/* columns rows colors chars-per-pixel */
"64 64 133 2 ",
"   c #3F3E3E",
".  c #403F3D",
"X  c #42413F",
"o  c #444443",
"O  c #484745",
"+  c #494846",
"@  c #494748",
"#  c #4D4C4B",
"$  c #504F4D",
"%  c #51504E",
"&  c #514F50",
"*  c #555453",
"=  c #585756",
"-  c #595856",
";  c #595758",
":  c #5D5C5B",
">  c #605F5E",
",  c #61605E",
"<  c #615F60",
"1  c #646363",
"2  c #686766",
"3  c #696866",
"4  c #696768",
"5  c #6D6C6C",
"6  c #706F6E",
"7  c #72716F",
"8  c #716F70",
"9  c #747473",
"0  c #787776",
"q  c #797876",
"w  c #767678",
"e  c #797778",
"r  c #7C7B7B",
"t  c #807F7E",
"y  c #81807E",
"u  c #7E7E80",
"i  c #817F80",
"p  c #848383",
"a  c #888786",
"s  c #898886",
"d  c #868789",
"f  c #898788",
"g  c #8C8C8B",
"h  c #908F8D",
"j  c #908E8F",
"k  c #908F8E",
"l  c #91908E",
"z  c #92918F",
"x  c #92918F",
"c  c #918F90",
"v  c #909090",
"b  c gray57",
"n  c #939290",
"m  c #939391",
"M  c #929292",
"N  c #939393",
"B  c #949391",
"V  c #949293",
"C  c #959492",
"Z  c #959593",
"A  c #969593",
"S  c #959394",
"D  c gray58",
"F  c #959595",
"G  c #969495",
"H  c #979694",
"J  c #979596",
"K  c gray59",
"L  c #979797",
"P  c #959494",
"I  c #989795",
"U  c #989697",
"Y  c #989796",
"T  c #999896",
"R  c #9A9997",
"E  c #9A9997",
"W  c #999798",
"Q  c #999798",
"!  c #979998",
"~  c #989898",
"^  c gray60",
"/  c #9A9899",
"(  c #989A99",
")  c #9B9A98",
"_  c #9B999A",
"`  c #999B9A",
"'  c #9A9A9A",
"]  c #9B9B9B",
"[  c #9C9B99",
"{  c #9C9A9B",
"}  c #9A9C9B",
"|  c #9D9C9A",
" . c #9E9D9B",
".. c #9D9B9C",
"X. c #9B9D9C",
"o. c gray61",
"O. c #9D9D9D",
"+. c #9E9C9D",
"@. c #9C9E9D",
"#. c #9F9E9C",
"$. c #9C9C9E",
"%. c #9F9D9E",
"&. c #9D9F9E",
"*. c gray62",
"=. c #9F9F9F",
"-. c #9C9C9B",
";. c #A09F9D",
":. c #A09E9F",
">. c #A09F9E",
",. c #A0A09E",
"<. c #A1A09E",
"1. c #A2A19F",
"2. c #A1A09E",
"3. c #A19FA0",
"4. c #A0A0A0",
"5. c gray63",
"6. c #A2A0A1",
"7. c #A2A2A2",
"8. c gray64",
"9. c #A4A3A1",
"0. c #A5A4A2",
"q. c #A6A5A3",
"w. c #A5A5A5",
"e. c #A7A6A4",
"r. c #A7A7A7",
"t. c #A3A2A2",
"y. c #A8A7A5",
"u. c #AAA9A7",
"i. c #AAA9A7",
"p. c gray66",
"a. c #A9A9A9",
"s. c #AAAAAA",
"d. c #A9A9A9",
/* pixels */
"r p r r r r w r r p r r r r u d p g g r 1 1 n 8.X.#.X.-.) ) #.#.X.X.X.X.) ) H n d : ; 1 : 1 1 p p n ; r r p g #.<.)  .t = 5 p 0 ",
"r r w p r w r w r r r r r r r r g ! H H : 1 p H ) #.#.X.) ) #.#.#.X.X.X.#.) H H ! H g g H g 5 p p 8.> r r r r g <.9.H ) , p q r ",
"r r r r r r p r r r r p r p d r p g H 8.: 1 g #.) X.X.-.-.) #.#.X.X.) #.#.#.) ) N =.H g #.H 5 p n H : r r r p d p #. .) : * r r ",
"r w r r p p r w r r r r u p d u r p n #.: : g #.#.X.X.X.#.#.#.#.X.X.) #.#.#.#.#.-.#.#.) #.n 8 t p r ; w p p r p r 8.g p r % $ r ",
"r q r w p p r r w r p p p p r r r g g ) = 1 p ) X.#.#.#.X.-.-.-.X.X.) #.-.#.#.#.#.) #.-.H g 9 i r 1 * r w r g p p 4 a , 1 3 # # ",
"# q r r r w g p p g g g g p r r r d g H : 1 g #.X.#.#.#.#.#.-.-.X.X.#.#.-.....#.#.#.) g j g e g #.) 1 r p r g p p #.#.0.I #.I , ",
"% % p t q g w p p g p p p p r r r p n H 1 > g ) X.) ) #.#.#.-.) X.X.-.-.-.-.#.#.) #.#.n n g 8 p H #.; r r r r w #.) #.H a.#.;.) ",
" .: + t h s g p r r p p r r r w r p g #.= 1 p ) -.) ) ) X.X.) ) [ X.-.#.-.-.#.#.#.) #.! H g 9 p g 8.; r w r 9 H ) #.) #.#.w.<.#.",
"<.7 : + s s p p g r r p r r r 9 r f n 8.* 1 g ) D ) #.-.) H H ) X.#.#.#.) ) #.#.-.#.) ) #.g 9 p g R * r r 5 H H #.#.#.) H #.8.w.",
"u.9 g , = y 9 g p p r w r w w r r g ) ) ; 1 p g H ) #.#.-.) ) #.[ X.#.#.X.X.#.X.#.#.#.) ) g 9 p z  .* r 4 z n H ~ ) #.#.H n ) 8.",
"g r p z * # p q r 0 r r w r r w e d H n : 1 p g H ) ) -.X.) -.#.[ [ X.X.#.#.X.X.) #.) ) ) g 4 p q 5 % 4 5 5 5 1 9 5 9 9 5 4 5 9 ",
"g A z r H 1 # y r r q r r r w r r p H #.: 1 p g ) -.) -.X.) ) #.[ ) ) X.X.X.X.X.#.) n 8.p 5 > r z p 5 y p g p g g f f g p p p d ",
"9 r R r p ;.: + t 0 r 0 r 9 p q r d g n : 1 p ) #.#.X.X.#.#.-.#.X.X.) X.#.) X.#.-.8.#.g 5 ; r 5 t r 9 : 9 q w r r r p p r r r r ",
"<.<.y I <.q #.1 % g 9 p r w r r 9 p w 1 = 1 p #.) X.) ) #.#.-.#.#.X.X.#.X.) ) #.=.H n 9 ; r 1 4 5 r 5 5 # r w.n g n ) ) ) ) H n ",
"I  .r h  .9.q ) 1 = p 9 r p w q r p w 1 # 1 d N ! ) ) ) #.#.) #.X.X.#.#.) ) ! ) ) p 1 1 9 : 4 8 9 6 r 9 #.= w z n n H ) X.-.) D ",
"n R p g #.0.<.r #.* + r r r r r r p g n * 1 g ) ) #.X.X.#.#.-.X.! ! #.#.) H D H p 8 1 4 * r W H A z H #.#.R * y D n H ) H n D ! ",
"z ;.r n R R 0. .0 w = # r q r w w g r 9 # 1 p H #.#.-.-.-.-.-.X.) 8.) ) X.N W g 5 : p 3 = w g A v g n ! p.) #.= r D N n H #.) ) ",
"H R p g  .<. .s g 9 q % + r r r r r r 5 ; 1 p H #.#.X.#.-.-.X.X.) ) 8.) -.j h 5 , r , y , r <.z ) 8.n H ) a.) W = r ) ! H ) ) #.",
"R <.r z R ;.H 5 I  .g z = + q r r p g H O 1 p n #.#.#.#.#.#.X.X.8.#.H w.H g 9 = r 5 4 R ; r [  .#.#.n ) #.#.w.3.8.* g ) #.) ) #.",
"7 y t z  . . .9 r z I 3 6 * $ q r p r 4 1 1 p H #.#.#.#.#.#.#.X.~ #.8.) #.9 ; p g 4 r w.I 2 z A n n n w p 8 9 9 4 w 1 5 w r e r ",
"I 3 y : I R A 5 p s B H ;. .O + q g A <.: : p n #.#.#.#.#.#.#...#.) ) H 4 * p ; : #.3 p 0.z I B n H 9 p p B W H #.g H 5 g W I S ",
"H 1 p ; A z h 5 q g g I 9.I A # # r g n * 1 g ) #.#.#.#.#.#.....) #.H 5 ; r g #.r ..9 r g r  .R -.9 g p a ) W H S S ) ;.$ p 3.) ",
"[ 9 q : g A z 5 y I [ R ;.[ R [ # 9 g g = 3 p ) #.#.X.X.-.-.-.-.[ g 5 ; r 5 # w 5 H 9 p g r #. .r i p p 5 0 1 e 2 9 5 9 r 1 9 ; ",
"H 5 y ; g R g 5 y R H ;.z <.9.)  .q #.[ = 1 g ) #.#.X.-.-.-.-.-.n 5 ; r 4 r p 4 5 6 9 p g r ) 9 p p p w 9 p p p f p p g p g 5 : ",
"0 9 r = h [ B 3 y R [  .g 8.0.0. . . .q , , w H ) ) X.#.#.) ) H 5 , w r 1 p h w r 9 r p g r w p p t 0 w 9 1 1 1 < 1 4 1 4 g g : ",
"* 5 a ; <.I A 9 p I  .R ) I R 0.0.R r 9 q y o q ) #.#.n #.=.N 9 : 9 9 9 g #.g 8...) ;.r p #.p p i 0 w r p ..#.[ ) #.8.3.c g g > ",
"z : y =  .<.w = p 0.7 s 3 3 , 3 w 5 = y R R R o y n n S ) 3.5 ; 9 1 : 9 I <.g #.[ 3.W p * # p r r e r i W $ @ * + * + g g c g 1 ",
"A 5 , 1 )  .[ s = A u.p 6 7 7 q 9 6 , p H H n p + # # @ # o ; r q r : 0 H [ g w.#.H B r p g p r 9 r i #.h #.g I B S : [ a f g ; ",
"g q R 1 % # $ # r % 5 A 6 * q  . .a = * s B g r 9 # * # & * # 4 r  .: 7 I 0.g #.) 8.p 8 #.#.#.j r r 9 8.) H #.) ) w r H r r r ) ",
"9 [ 0 r 6 9 w 9 s g = g 7 9 9 6 4 9 9 1 % 9 p 1 5 5 ) 6 S 9 r ) s [ > r g H g ;.;.) r w =.) ) H r r e n ) 8.) ) 9 r H w p e n r ",
"[ p y 9 R h B g A B g  .A q q 0 r q r 0 5 * 2 3 ; A g r S 4 a I n g , y ) [ g  .H ..p r 8.8.n ) f p r #.#.) #.r p -.n g p #.) p ",
"g g ) z r . X o o . + z B I ;.[ 9.[ <.0.: 2 r g 4 5 : 2 p i f r p t r g a p t r g g g H H n g g g H n #.) g g g p g g p g p g g ",
"; : # + # -.#.#.#.~ w # f ~ r n z z A z R , A <.n 3 : r # : 1 : > 1 1 1 1 1 < : : : : : : ; ; = = = = = ; ; : : : : > 1 1 1 : : ",
"#.) #.#.! 8.) ) ) ) g 5 p =.p 9 7 9 7 6 1 g : <.y > p * 9 g ~ #.N H H H n n j j ~ ) ) ) ) ) ) ) X.) ) ) ) ) ) ) #.) ) ) ) ) ) ) ",
"#.) 8.#.#.! #.#.) 8.H 1 9 n ~ u :  .a y 9 5 H , 5 r # w g ) #.) ) X.#.) ~ H H ) -.X.#.#.#.#.#.#.#.#.#.#.#.X.#.#.#.#.#.-.) ) X.#.",
"#.8.#.) ~ -.#.~ #.H n 6 ; p 4 1 1  .R ;. .r 6 y o q = p n #.) #.#.#.#.#.) ) #.#.#.X.#.#.-.) ) ) ) ) ) ) -.-.) ) ~ ) -.#.-.-.X.X.",
"H ) D 8.#.#.#.H ) g 9 1 r w 1 r : 9 g g y. .y 5 s O 1 g ) #.) ) X.X.#.#.#.#.#.-.#.#.#.#.#.#.#.#.#.#.#.#.#.#.) ) H ) X.#.#.#.X.X.",
"8.8.) #.X.~ ) n p 5 ; 9 1 5 w r 1 ) 5 r 9 R ) y 3 = 1 h ) H #.8.-.) ) #.#.#.) ) ) ) ) ) -.X.X.X.X.X.#.#.) ) ) ) ) ) -.-.) ) -.) ",
") #.#.) #.#.) p 9 : 9 1 1 r w g 5 n : ; q y [ 6 : = 3 a g g )  .X.#.#.#.X.X.X.-.#.#.#.#.X.X.-.-.-.-.-.X.#.#.#.#.#.#.X.X.#.#.#.#.",
"#.#.) X.) #.g 9 = r 1 4 p 9 1 g 9 I =  .r p g g ;.= 1 r p p B #.) X.#.#.-.) X.#.-.-.) ) #.X.X.X.#.#.X.X.X.) ) -.X.-.) -.#.#.#.#.",
"#.#.) #.) g 9 ; w ; 5 r r 4 9 p 9 z  .z r 4 w s n > p . q g p R ) #.#.H 8.) ) =.X.X.#.#.#.#.#.#.#.#.#.#.) ) X.#.#.) X.=.#.) #.#.",
") 8.H n g 5 ; r 4 1 n r r 5 5 n 3 q 9 3 5 9 9 9 R 1 % y o q g y H ) ) H ) -.#.#.X.X.#.#.#.#.X.#.#.#.#.#.X.#.-.-.#.X.#.#.) ) ) ! ",
") H ) p 9 = r : w w ) w r 9 w g g g p 5 r 6 7 q r w * # r + w s g n ) 8.) #.) #.-.-.) ) ) ) ) ) #.#.X.X.X.-.-.-.X.X.#.-.) =.#.H ",
"n H r w = r 9 * p w w r r 4 p ; ; ; 1 w 3 9 0 p 3 1 : O o r o r p g g p 8.-.8.) X.X.X.#.-.-.-.-.) ) X.X.#.#.-.) -.) #.#.#.#.) N ",
"g p 9 ; r 1 w 5 p r g 9 w w 4 9 1 1 9 r w r r 5 [ H g z = + p X r p v j ) H H #.#.X.X.-.-.X.X.#.X.#.X.X.#.#.X.-.#.) #.#.) H S g ",
"p 8 : e w ; H w n r n r p n #.g 4 p 5 w r p 9 y A I 9 9 7 $ # y O r i p g ) ) ) #.X.X.-.-.-.#.#.X.-.-.-.X.X.-.) X.) ) ) ) S n g ",
"5 1 e 9 w r #.5 p r g 9 5 9 5 1 p ) p 9 p 9 0 r 9 I B r 7 R * # r + e p g g H ) X.X.#.-.#.#.#.#.#.) ) ) ) ) ) ) ) ) H H n c g p ",
": e 4 r 9 ) p 9 p p p w 9 w 4 p A g g r 5 q g * # 7 <.<.y.[ <.* # r O w p p n ) -.-.) ) ) -.) ) #.) ) ) ) ) ) ! X.) H g g g p 9 ",
"r = 6 3.S p r 9 r g r p p 5 p p p R R R : z # w -.O 9 w.#.D ) #.* * p   p s h [ ) ) X.H ) #.~ #.#.) #.X.) -.X.X.#.H B p g f 5 : ",
"* 4 H H f r r p n r p r 5 r r p p g s 7 , 1 w H =.n # w g ) #.) ;.* * p o p p z H 8.! X.H H #.n #.) #.X.) #.#.X.) I g g f 5 1 9 ",
"# 3 5 5 4 r p g r g r 5 p p u r i t R ) = : n #.X.) ~ + w H ! 8.;. .: % r X p g v g H ! H ) #.) H H ) ) ) #.#.) ) g g p 5 : 9 = ",
"1 z 4 a g 8 5 w g : r r r r d r w g  .n 3 1 g ) ) 8.) g # w g n 7 w = 5 % r   r p n #.#.) 8.) #.H ~ ) #.#.#.#.H g g i 5 < w : : ",
"5 9 p g g 9 5 r p > p r p p w p p z 1 + : : g ) #.) ! H p + 9 g s # % A = = p   r f n ) #.H #.#.) ) ) X.X.) ) n g p 9 1 w ; 9 8 ",
"1 B H n g 9 w r 5 p p p p g p w w g s t : : g #.) #.#.) D p ; 9 A R #.A r $ * p O p g #.) #.#.) ) X.H ) ) ) X.j g 5 > 9 4 ; ;.5 ",
"1 9 4 1 5 8 1 1 w r r p r p p p p g ) g 1 1 p ) #.#.) 8.) H g # 9 R H w 9 8.+ * p o r p H #.) #.-.=.) #.#.) ! f 9 ; 9 1 4 r H 9 ",
"$ + & o 5 2 1 r r p p p p r g g p ) n n : : n #.) ) ) =.=.-.H g # 9 ) ) H 4 r 1 ; p o p p g H H ) =.) #.) j f 9 = r w r 5 r 8 r ",
") s B g 2 > w r r r r r r p g p p I r 9 = , H #.#.#.) #.-.) ) ) p = 5 ) w.8.p 8.= = r o r p g R #.W H g g g 5 : r r p ) ) 5 #.n ",
"+ * + & : w r w r r r r r p p p a ) H [ 1 : 8.#.#.#.#.#.#.-.) #.n p ; 9 8.8.p d ) # # g o r p h W W n H r o : r 1 w #.) w : p # ",
"p r e 1 9 9 9 r r r r r r r u r g h z 8.1 > g ) -.-.#.#.#.#.X.#.#.) p + 9 8.X.n r ) * $ p . y q ; ; > ; . r * 8 w n H w ) ) n r ",
"0.y 1 r r r e w r w r r r r r r p R 2 + 2 > H #.) ) ) X.X.X.X.X.) 8.) g O w X.) w #.I * # q * $ w # + o + : 4 H ~ 8.w ) ) #.; D ",
"p 4 r e 0 9 r r r r r r r r r p p z z t : : g 8.) X.-.-.) ) ) -.#.#.) #.H   r H ) a.R [ * X o # + 5 1 8 5 9 ) ) #.w ) ) #.! 8.= ",
"9 t e t w e r r r r r r r r u p r R q , , : g ) X.#.#.#.) #.X.) 8.) =.H #.D @ w H ) u.[ R #.[ <.I S 3.B 3.) H ) r = #.#.) #.#.p ",
"r t p w r 0 9 r r r r r r r r p t p B I : 1 n H X.#.#.#.#.#.#.) ) X.=.) #.#.g @ 9 ;.R A g I ) A [ ..W 8 p H ..8.#.r = #.) #.i 4 ",
"y y r r r r w r r r r r r r r r t z 4 # > 2 g #.) X.#.-.-.#.#.X.=.) #.-.#.) #.g * 5 B t r r y n H ) 5 4 r f [ ;.#.) r = 8.p 5 r "
};
