/* XPM */
static char *_7653f55f8604b0a878c82f5f92c23ce6IZVnwRA9WsmNhYe[] = {
/* columns rows colors chars-per-pixel */
"64 64 139 2 ",
"   c #020202",
".  c gray1",
"X  c #040404",
"o  c #060606",
"O  c #070707",
"+  c gray3",
"@  c #090909",
"#  c gray4",
"$  c #0B0B0B",
"%  c #0C0C0C",
"&  c gray5",
"*  c #0E0E0E",
"=  c gray6",
"-  c #101010",
";  c #111111",
":  c gray7",
">  c #131313",
",  c gray8",
"<  c #151515",
"1  c #161616",
"2  c gray9",
"3  c #181818",
"4  c #191919",
"5  c gray10",
"6  c #1B1B1B",
"7  c gray11",
"8  c #1D1D1D",
"9  c #1E1E1E",
"0  c gray12",
"q  c #202020",
"w  c gray13",
"e  c #222222",
"r  c #232323",
"t  c gray14",
"y  c #252525",
"u  c gray15",
"i  c #272727",
"p  c #282828",
"a  c gray16",
"s  c #2A2A2A",
"d  c gray17",
"f  c #2C2C2C",
"g  c #2D2D2D",
"h  c gray18",
"j  c #2F2F2F",
"k  c gray19",
"l  c #313131",
"z  c #323232",
"x  c gray20",
"c  c #343434",
"v  c #353535",
"b  c gray21",
"n  c #373737",
"m  c gray22",
"M  c #393939",
"N  c #3A3A3A",
"B  c gray23",
"V  c #3C3C3C",
"C  c gray24",
"Z  c #3E3E3E",
"A  c #3F3F3F",
"S  c gray25",
"D  c #414141",
"F  c gray26",
"G  c #434343",
"H  c #444444",
"J  c gray27",
"K  c #464646",
"L  c gray28",
"P  c #484848",
"I  c #494949",
"U  c gray29",
"Y  c #4B4B4B",
"T  c #4C4C4C",
"R  c gray30",
"E  c #4E4E4E",
"W  c gray31",
"Q  c #505050",
"!  c #515151",
"~  c gray32",
"^  c #535353",
"/  c gray33",
"(  c #555555",
")  c #565656",
"_  c gray34",
"`  c #585858",
"'  c gray35",
"]  c #5A5A5A",
"[  c #5B5B5B",
"{  c gray36",
"}  c #5D5D5D",
"|  c gray37",
" . c #5F5F5F",
".. c #606060",
"X. c gray38",
"o. c #626262",
"O. c gray39",
"+. c #646464",
"@. c #656565",
"#. c gray40",
"$. c #676767",
"%. c #686868",
"&. c DimGray",
"*. c #6A6A6A",
"=. c gray42",
"-. c #6C6C6C",
";. c #6D6D6D",
":. c gray43",
">. c #6F6F6F",
",. c gray44",
"<. c #717171",
"1. c #727272",
"2. c gray45",
"3. c #747474",
"4. c gray46",
"5. c #767676",
"6. c #777777",
"7. c gray47",
"8. c #797979",
"9. c gray48",
"0. c #7B7B7B",
"q. c #7C7C7C",
"w. c gray49",
"e. c #7E7E7E",
"r. c gray50",
"t. c #808080",
"y. c #818181",
"u. c gray51",
"i. c #838383",
"p. c #848484",
"a. c gray52",
"s. c #868686",
"d. c gray53",
"f. c #888888",
"g. c #898989",
"h. c gray54",
"j. c #8B8B8B",
"k. c gray55",
"l. c #8E8E8E",
/* pixels */
"w.u.$.$.:.&.&.{ o.! { o.o.o.&.&.:.{ $.o.o.{ T { { &.$.:.o.$.w.8.8.w.$.o.:.$.&.{ { ! o.o.{ $.{ &.&.$.o.o.o.{ ! o.{ $.&.:.$.$.u.w.",
"! 8 D Z Z T K Z Z c D U k j.5.K K 5.d.k K Z Z c B Z K K Z Z 1 T T 1 Z Z K U Z B c Z B K k d.5.K K 1.j.k U D c Z Z K T Z Z D 8 ! ",
"c k ] { ] ! T ( { ( ! ] u.] $.D D o.{ d.( ( ( ] ( ! ! ( ( { k k k k { ] ( ! ! ( ] ( ( ] d.{ o.D D o.] u.] ! ( { ( T ! ] { ] k c ",
"U B ( ] ] o.T ( ! ( ! 5.( 1.f K K f &.] 5.T ] ! ( ! o.( { ( c U U c ( { ( o.! ( ! ] T 1.] :.k K K f 1.( 5.! ( ! ( T o.] ] ( B U ",
"; k { o.( ( ! ] ] ! u.:.$.] c 1 ; k ] &.:.u.T ( ( ! ( ( o.{ k ; ; k { $.( ( ! ( ( ! u.&.&.] c * 1 c ] $.:.u.( ( ] ! ( ( o.{ k ; ",
"D s ! ] ( ! ] ] ( u.! :.T T B D D k ] U $.] 8.( ] ( ( ( ( ! B Z Z c ( ( ( ( ! ] ( 5.( &.T ( k D D c T T &.! u.( ] ] ! ( ] ! s D ",
"$ c ( ! ] T ! ] 8.T 1.! $.{ D   X U { { T &.( w.( K U { ( ! c X X k ! ( { U K ( w.( &.T { ] U X   D { $.! :.! 8.] ! T ] ! ( c $ ",
"U k ] ] ] { T j.$.5.( ( { o.B ] ( c o.{ ] ! 5.$.k.( { T { ] f T T f ] { T { ( j.o.8.! ] ] o.B ( ] B o.{ ( ( 8.$.k.T { ] ] ] k T ",
"1 k ( ( o.! 1.( 8.] ] ] ( ( Z 1 1 B ] ( ] { ( 8.( 5.! { ( ( f 1 1 f ( ( { ! 5.( 8.( ] ] ( ] B ; 1 Z ( ( ] ] ] 8.( 1.! o.( ( k 1 ",
"f w { $.{ 1.( o.K { U T ! o.B B B Z { ! ! U $.K o.( 5.] $.{ s s s s { $.] 5.( o.K $.U ! ! { Z B B B $.T T U ] K o.( 1.{ $.{ w s ",
"k c ] ( w.{ &.T ] ] ( ( ( { U s u U { ! ( T ] ( T $.] u.! { B k k B { ! u.] $.T ( ] T ( ! { U u s K o.T ( ( ( ] T &.{ w.( ] k k ",
"1 f ( 5.( 1.K ! ( K ! T $.( B 5 5 c o.$.T ! K ] ] K :.{ 1.( s 1 ; s ( 1.{ :.K ] ] K ! T $.o.c 5 1 c ] o.! ! U ( ! K 1.( 5.( f 1 ",
"D k u.] $.B ( ! { ! ( ! ] { B B B k ] ( ! ( T ] ! ] D o.{ u.k Z Z k u.{ { D ] ! ] T ( ! ( ] k B B Z ] ] ( T ! ] ( ( B $.] u.k D ",
"8 5.( w.! ! { ] { U ] o.! ] k 5 5 c ( ( $.] T { ( { ( T u.( 5.8 8 5.( u.U ! o.( { T ] $.( ( c 5 5 B ( ( o.( U ] ] { ! ! w.( 5.8 ",
"* ( ! k c c c B Z c c c B B 8 * $ w c Z k k c Z Z B k Z f T T * $ T T f B k Z Z Z c k k Z c w X $ w c B c B c D B c c c k ! ( * ",
"5.5.$.$.:.1.o.] o.&.{ o.{ o.$.1.1.$.o.o.{ o.$.{ ! { 5.:.o.$.w.1.1.8.$.{ :.5.{ ( o.$.o.{ o.o.$.1.5.o.o.{ ] o.o.o.] o.1.:.$.$.5.5.",
"1.8.&.o.:.5.o.( o.o.$.{ { o.$.5.5.$.o.{ ] $.o.o.( ] 1.&.o.&.5.5.5.5.&.o.&.5.{ ( o.$.o.] { { $.5.5.o.o.o.{ $.o.o.( o.5.:.o.&.8.1.",
"* ! ! f B k B B D c c k Z c w $ $ w c Z c c c D B B B k f ( ! * * ! ( f k B B B D c k k Z c w $ X u B B k c c Z B B k B f ! ! * ",
"8 5.( u.T ( o.] { T ] $.( ( B 5 1 c ( ! $.( T { ! { ! U 8.] 1.8 w 1.( 8.U ! ] ! { T ] o.! ( c 1 5 B ( ( $.] T { ] o.( T u.( 5.8 ",
"D B u.{ o.D ( ! ] T ! ! ! ] c B Z B { ( ! ( ! { ] ( Z &.] u.s D Z f u.] $.D ] ] { ! ( ! ( { c Z B k ( ( ! ! T ] ! ( D o.{ u.B D ",
"5 f ( 1.{ :.D ( ] U ! ! o.] B 5 5 B ] o.T T K ( ( Z 1.] 5.( k 5 5 c ( 5.] 1.Z ! ( K ! T o.{ c 5 5 B { o.! ( U ( ( D :.{ 1.( f 5 ",
"k B { ! d.] $.! ( ] T ( ! ] U u u U { ! ] T ] ( ! $.{ w.! ] c s f c ( ! u.{ $.! ( ] T ( ! { U u u U { ! ( T ] ( ! $.] d.! { B k ",
"s s { $.( 5.( o.D { K ! ! { Z B c B { T ! U { D { ( :.{ &.o.s f k u o.&.{ :.( o.D o.K ! ! ] B c Z B { ! ! K { K o.( 5.( $.{ s s ",
"1 f ( ] ] T 8.( w.! ] ( ( { c ; 1 c ] ! ( ] ( w.( 8.T ] ] ( s ; ; f ( ( ] T 8.! w.( ] ( ( ] B 1 ; B { ! ( { ! 8.( 8.T ] ] ( f 1 ",
"T f ( o.! ] ( j.{ w.! ( o.o.B ( ( B o.{ ] ! w.o.k.] o.T o.] f ! ! f ] o.T o.] k.o.w.! ] { o.B ! ( B { { { ! 5.$.j.( { ! $.( k T ",
"$ f ] T ] ! K ] w.U :.T ( o.K $ X Z o.] U 1.T w.{ T U ] ( ! c $ $ k ! ( { T U { w.T 1.U ] { Z $ X K $.( U 1.T w.] K ( ( ! ] k $ ",
"D f ( ( { ( T { ] 5.] :.K ! B D D k ( U &.] 5.( ] ! ( ] ( ( B Z Z B ! ( ] ( ( { ! 8.] &.U ! c D D c ( U &.] 8.( { T ( ] ] ( f D ",
"; k { o.( ! ( ( ] ( d.:.&.] c ; ; B ] $.:.d.! ( ] ! ( ( o.] c * ; c ] { ( ! ! ] ] ! u.:.$.{ B ; ; c ] &.:.d.! ] ( ( ! ( o.{ k ; ",
"T k ] ( ! o.! ( ! ( ! 5.] 1.f K K c &.( 5.T ] ! ( ! o.( ] ! c U K k ( ] ] o.! ( ( ( ! 1.( 1.k K K k 1.( 1.! ( ! ( ! o.( ] ] k T ",
"c f ] { ] T ! ( ] T ( ] u.{ $.Z D $.] d.] ! ( ] ! T ! ] ( { k k k k { ( ] ! T ! ( ! ] ] u.] o.D D o.{ d.] ! ! { ! T T { { { f c ",
"U 8 B Z Z K K B Z c D U f j.1.K K :.j.k K D B B B Z K D Z Z 5 ( ( 5 Z B Z D Z Z B Z D K f j.:.K U :.d.k U Z c Z B K K D Z B 8 U ",
"w.8.&.$.&.:.{ { { $.( $.$.] $.&.&.o.{ o.o.{ { o.] &.&.1.$.&.w.w.w.w.&.$.1.&.&.] $.$.] o.$.{ &.$.&.:.] { $.] { ] o.o.:.:.$.&.5.w.",
"w.5.&.$.&.:.o.o.] o.] $.$.{ &.&.$.$.{ o.$.{ ] o.] &.&.:.&.$.w.8.8.u.$.$.1.&.&.] $.$.] o.$.{ &.$.&.:.] { $.] { ] o.$.:.:.$.&.8.w.",
"U 8 B Z Z K K B D c Z T f d.1.K K 1.j.f K D B Z Z Z K Z Z B 8 ( ( 8 B B Z K Z Z B Z D K f j.:.K U :.d.k U Z c Z B K K D Z B 8 U ",
"c f ] { ] T ! ( ] T ( ] u.{ $.Z D $.( d.] ( ( ( ! T ! ( ] { c k k k { ] ( ! T ! ( ! ] ] u.] o.D D { { d.] ! ! ] ! ! T { { ] k c ",
"T k ] ( ! o.! ( T ] ! 1.] 1.f K K c &.( 5.T { ! ( ! o.] ] ! k K K k ! { ] o.! ( ( ( ! 1.( 1.k K K k 1.( 1.! ( ! ( ( o.( ] ] k T ",
"; k { o.( ! ( ( ] ( d.:.&.] k ; * B { &.&.u.! ] ] ! ! ( { ] c ; ; k ] o.( ! ! ] ] ! u.:.$.{ B ; ; c ] &.:.d.! ] ( ] ! ( o.] k ; ",
"D f ( ] { ( T { ( 5.] :.K ! B D D k ( U &.] 5.! ] ( ( ] ( ( B Z Z c ( ( ] ( ( ] ! 8.] &.U ! c D D c ( U &.] 8.( { ! ( ] ] ! f D ",
"$ f ] ! ] ! K ] w.U 1.U ( $.U X $ Z { ( T 5.T 8.] T U { ( ! k $ $ k ! ( o.U U { w.T 1.U ] { Z $ X K $.( U 1.T 8.] K ! ( ! ( k $ ",
"T f ( o.( ] ( j.o.w.! ] o.o.B ( ! Z o.] ] ! 8.$.k.] { ! { { s ! ! f { { ! { ( k.o.w.! ] { o.B ! ( B o.{ { ! 8.$.j.( { ! $.! k T ",
"; k ( ] { T 5.] 8.( ] ] ( ] B ; ; B ] ( ] ] ( 8.! 8.T ] ] ( s ; 5 s ! ( o.T 5.( w.( ] ( ( ] B 1 ; c { ( ( ] ! w.( 8.T ] ] ( f 1 ",
"s s { &.! 1.( o.D ] U ! T o.B B c B { T T U { D o.( :.{ &.{ u f s f o.&.( 1.( o.K o.U T T ] c c B B { ! ! K { D $.! :.] :.{ u s ",
"k B { ( w.] &.T ( ( T ( T { K s s U { ! ( ! ] ( T o.] u.! ] B f f c ( ! u.{ $.! ( ( T ( ! o.U s u U { ! ( T ] ( T $.] d.! ] B k ",
"5 f ] 1.{ :.K ! ] T ! ! $.] Z 5 1 c { o.T ! K ( ( D 5.] 5.( k 1 8 k ] 1.] 1.D T ( K ! T o.{ c 1 5 B { o.! ! U ] T K 1.{ :.( k 5 ",
"D c u.] &.Z ! ! ] ! ! ! ( ( B B B B ] ( ( ( ! { ( ( Z &.] u.f D Z f u.{ o.D ] ] { ( ( ( ( ] B B B c ] ! ! ! T ] ( ! Z o.o.u.c D ",
"8 1.( w.( ! { ] { U ] o.! ] c 5 1 B ! ! $.( ! ] ( { ! T 8.( :.8 w :.( w.T ! ] ( ] T ( $.! ! Z 5 5 B ( ( $.] T { ] { ( T u.( 1.8 ",
"; ! ( f B k c Z D k c k B B w $ $ u c B c c c Z B c B k f ( ! * * ( ] u c B D Z Z c c c B c u $ $ u B Z k k k D B B c B s ! T ; ",
"5.8.&.$.{ 5.o.( { $.o.{ { o.$.1.5.o.o.{ { :.o.{ ( { 5.&.o.&.5.5.5.5.$.$.&.1.{ :.( ] $.] ] $.o.5.1.$.o.{ ] $.o.o.{ { 1.:.$.&.5.5.",
"5.1.$.$.$.1.o.] o.&.{ o.{ o.$.1.5.o.o.o.{ &.$.o.( o.5.:.o.&.8.1.5.8.o.$.:.5.o.o.( o.o.{ o.o.$.5.1.o.o.{ { o.&.o.] o.1.:.$.$.5.5.",
"* ! ] f c k B B Z c c c B B 8 * X w c Z k k c Z Z B k B f ! T * * ! ! f B k Z Z D B c k B k w X $ w B B k c c D B B c c k ! ( * ",
"5 5.( w.! ( { ] { U ] o.! ] k 5 5 B ( ( $.( ! ] ( o.( U u.( 5.8 w 5.( u.T ! { ( { T ] o.( ( c 5 5 c ( ( o.( U ] ] { ! ! w.( 5.8 ",
"Z c u.{ $.Z ! ( { ! ( ! ] { B B B c ] ( ! ! T ] ( ] D o.{ u.k Z D k u.{ $.Z ] ( ] T ( ! ( ] k B Z Z ] ] ! ( ! ] ! ( B $.{ u.k D ",
"1 f ( 1.] :.K ! ( K ! T $.( B 5 5 c o.o.T ( K ] ] K :.{ 1.( s 1 ; s ] :.{ 1.U ( ] K ( ! $.o.c 5 1 c ] $.T ! K ] ! K 1.( 5.( f 1 ",
"k c ] ( w.] &.T ] ] ( ( ( { U s u K o.! ( ! ] ] T $.] u.! { B k k B { ! u.] $.T ( ] U ( ! { U s f K $.! ( ( ( ] T &.{ w.( ] c k ",
"s u ] :.] 1.( $.K { U T ! o.B B B B { ! ! U o.K o.( 5.] $.{ s s s u ] &.] 1.! $.U $.U ! ! { B c Z B o.T T U { D $.( 1.{ $.] w f ",
"1 k ( ] o.T 5.! 8.] ] ] ( ( Z 1 1 B ] ] ] ( ] 8.! 5.! { ] ] k 1 1 k ( ] ] ( 5.( 8.( ] ] ] { B 1 ; B ( ( { ! { 8.( 1.! { ( ( k 1 ",
"U k ] ] ( { T k.$.5.( ( { o.B ] ( B o.] ] ! 8.o.k.( { T { ] k ! ! f ] { T { ( k.o.8.! ] ] o.B ( ] B o.{ ( ( 5.$.k.T { ( ] ] k U ",
"$ c ( ! ( T ! ] 8.T 1.! $.{ D   X U ] { T &.( w.( K U { ] ! k X X k ! ( { U K ( w.( &.T { ] U X   D { $.! 1.T 8.] ! T ( ! ( c $ ",
"D s T ] ( T ] ] ] u.! &.T T B D D k ] T &.( 5.( ] ! ( ( ( ! c Z Z c ! ( ( ( ! ] ( 5.( &.T ] k D D B T T &.! u.] ] ] T ( ] T s D ",
"; k ] o.( ( ! ] ] ! u.:.$.] c ; * c ] &.&.u.! ( ( ! ( ( o.] k * * k ] o.( ( ! ( ( ! u.&.&.] c * ; c ] $.:.u.! ] ] ! ( ( o.] k ; ",
"U B ( ] ] o.T ( ! ( ! 8.( 1.f K D k :.] 1.T ] ! ( ! o.( { ( c U U c ( { ( o.! ( ! ] T 1.] :.k D K f 1.( 8.! ( ! ( T o.] ] ( B U ",
"c k ] ] ] ! T ( ] ( ! ] u.] $.D D o.{ d.] ( ( ] ( ! ! ( ( { k k c c { ( ( ! ! ( ] ( ( ] d.{ o.D D $.] u.] ! ( ] ( T ! ] ] ] k c ",
"! 8 D Z Z T K Z Z c D U k j.5.K K 5.d.k K B Z c B Z K K D Z 1 U U 1 Z D K K Z B c Z B K k d.5.K K 5.j.k U D c Z Z K T Z Z D 8 ! ",
"w.u.$.$.:.&.$.] o.! { o.{ o.&.&.:.{ $.{ o.o.! { { &.$.:.o.$.w.8.8.w.$.o.:.$.&.{ { ! o.o.{ $.{ :.&.&.o.{ o.{ ! o.] $.&.:.$.$.u.w."
};
